# xmcd CD database file
#
# Track frame offsets:
#	150
#	15546
#	39708
#	59894
#	87753
#	114733
#	129324
#	159727
#	178052
#	206804
#	223782
#	243589
#	256191
#	272771
#
# Disc length: 3871 seconds
#
# Revision: 0
# Processed by: cddbd v1.5.2PL0 Copyright (c) Steve Scherf et al.
# Submitted via: CDex 1.70beta2
#
DISCID=d30f1d0e
DTITLE=Dieter Iby - Nature
DYEAR=1900
DGENRE=New Age
TTITLE0=Swing
TTITLE1=Africn Dance
TTITLE2=Heartbeat
TTITLE3=Dreams
TTITLE4=Heaven and Earth
TTITLE5=Elephantine
TTITLE6=Rockbeat
TTITLE7=Sunshine
TTITLE8=Nature
TTITLE9=Jungle
TTITLE10=Frog
TTITLE11=Tic Tac
TTITLE12=Tommy
TTITLE13=Santa-Ana
EXTD=
EXTT0=
EXTT1=
EXTT2=
EXTT3=
EXTT4=
EXTT5=
EXTT6=
EXTT7=
EXTT8=
EXTT9=
EXTT10=
EXTT11=
EXTT12=
EXTT13=
PLAYORDER=
